<svg width="14" height="14" viewBox="0 0 14 14" fill="none" xmlns="http://www.w3.org/2000/svg">
<path d="M7.70703 7L13.3535 1.35353C13.5488 1.1582 13.5488 0.8418 13.3535 0.646533C13.2559 0.5488 13.1283 0.5 13 0.5C12.8718 0.5 12.7442 0.5488 12.6465 0.646467L7.00003 6.293L1.35357 0.646467C1.2559 0.5488 1.12797 0.5 1.00003 0.5C0.8721 0.5 0.744167 0.5488 0.6465 0.646467C0.451167 0.8418 0.451167 1.1582 0.6465 1.35347L6.29303 7L0.646567 12.6465C0.451233 12.8418 0.451233 13.1582 0.646567 13.3535C0.744167 13.4512 0.8721 13.5 1.00003 13.5C1.12797 13.5 1.2559 13.4512 1.35357 13.3535L7.00003 7.707L12.6465 13.3535C12.7442 13.4512 12.8718 13.5 13 13.5C13.1283 13.5 13.2559 13.4512 13.3536 13.3535C13.5489 13.1582 13.5489 12.8418 13.3536 12.6465L7.70703 7Z" fill="#EA650D"/>
</svg>
