<svg width="40" height="40" viewBox="0 0 40 40" fill="none" xmlns="http://www.w3.org/2000/svg">
<circle cx="20.8335" cy="20.8334" r="17.5" fill="#FFEFEB"/>
<path d="M13.6091 28.5971C14.0339 28.7419 14.5156 28.5092 14.6621 28.0746C14.7157 27.9199 16.0146 24.2936 21.0487 24.2936C26.0406 24.2936 27.1539 28.4896 27.1979 28.6652C27.3069 29.1129 27.7545 29.3797 28.2054 29.2789C28.653 29.1699 28.9264 28.7191 28.819 28.2714C28.8044 28.2161 27.3754 22.6269 21.0489 22.6269C14.7746 22.6269 13.1469 27.3469 13.0817 27.5487C12.9386 27.9834 13.1746 28.4506 13.6091 28.5971Z" fill="#E64415"/>
<path d="M16.932 17.0932C17.3927 17.0932 17.7654 16.7205 17.7654 16.2598V13.8672C17.7654 13.4065 17.3927 13.0338 16.932 13.0338C16.4713 13.0338 16.0987 13.4065 16.0987 13.8672V16.2597C16.0987 16.7203 16.4713 17.0932 16.932 17.0932Z" fill="#E64415"/>
<path d="M24.9495 17.0932C25.4102 17.0932 25.7828 16.7205 25.7828 16.2598V13.8672C25.7828 13.4065 25.4102 13.0338 24.9495 13.0338C24.4888 13.0338 24.1162 13.4065 24.1162 13.8672V16.2597C24.1162 16.7203 24.489 17.0932 24.9495 17.0932Z" fill="#E64415"/>
<path d="M20.8334 3.33333C11.1833 3.33333 3.33337 11.1833 3.33337 20.8333C3.33337 30.4833 11.1833 38.3333 20.8334 38.3333C30.4834 38.3333 38.3333 30.4833 38.3333 20.8333C38.3333 11.1833 30.4834 3.33333 20.8334 3.33333ZM20.8334 36.6667C12.1028 36.6667 5.00004 29.5638 5.00004 20.8333C5.00004 12.1028 12.1028 4.99999 20.8334 4.99999C29.5639 4.99999 36.6667 12.1028 36.6667 20.8333C36.6667 29.5638 29.5639 36.6667 20.8334 36.6667Z" fill="#E64415"/>
</svg>
