<svg width="40" height="40" viewBox="0 0 40 40" fill="none" xmlns="http://www.w3.org/2000/svg">
<circle cx="20.8335" cy="20.8334" r="17.5" fill="#FFF7EE"/>
<path d="M16.9322 17.0932C17.3928 17.0932 17.7655 16.7205 17.7655 16.2599V13.8672C17.7655 13.4065 17.3928 13.0339 16.9322 13.0339C16.4715 13.0339 16.0988 13.4065 16.0988 13.8672V16.2597C16.0988 16.7204 16.4715 17.0932 16.9322 17.0932Z" fill="#EA650D"/>
<path d="M24.9497 17.0932C25.4103 17.0932 25.783 16.7205 25.783 16.2599V13.8672C25.783 13.4065 25.4103 13.0339 24.9497 13.0339C24.489 13.0339 24.1163 13.4065 24.1163 13.8672V16.2597C24.1163 16.7204 24.4892 17.0932 24.9497 17.0932Z" fill="#EA650D"/>
<path d="M20.8335 3.33336C11.1835 3.33336 3.3335 11.1834 3.3335 20.8334C3.3335 30.4834 11.1835 38.3334 20.8335 38.3334C30.4835 38.3334 38.3335 30.4834 38.3335 20.8334C38.3335 11.1834 30.4835 3.33336 20.8335 3.33336ZM20.8335 36.6667C12.103 36.6667 5.00016 29.5639 5.00016 20.8334C5.00016 12.1029 12.103 5.00003 20.8335 5.00003C29.564 5.00003 36.6668 12.1029 36.6668 20.8334C36.6668 29.5639 29.564 36.6667 20.8335 36.6667Z" fill="#EA650D"/>
<path d="M29.0593 25.8333C29.0593 25.3726 28.6867 25 28.226 25L13.3333 25C12.8727 25 12.5 25.3726 12.5 25.8333C12.5 26.294 12.8727 26.6666 13.3333 26.6666L28.2258 26.6666C28.6865 26.6666 29.0593 26.2938 29.0593 25.8333Z" fill="#EA650D"/>
</svg>
