<svg width="40" height="40" viewBox="0 0 40 40" fill="none" xmlns="http://www.w3.org/2000/svg">
<circle cx="20.8335" cy="20.8334" r="17.5" fill="#F4FFD1"/>
<path d="M28.2732 23.33C27.8484 23.1852 27.3667 23.4178 27.2202 23.8525C27.1665 24.0072 25.8677 27.6335 20.8335 27.6335C15.8417 27.6335 14.7284 23.4375 14.6844 23.2618C14.5754 22.8142 14.1277 22.5473 13.6769 22.6482C13.2292 22.7572 12.9559 23.208 13.0632 23.6557C13.0779 23.711 14.5069 29.3002 20.8334 29.3002C27.1077 29.3002 28.7354 24.5802 28.8005 24.3783C28.9437 23.9437 28.7077 23.4765 28.2732 23.33Z" fill="#96B439"/>
<path d="M16.932 17.0932C17.3927 17.0932 17.7654 16.7205 17.7654 16.2598V13.8672C17.7654 13.4065 17.3927 13.0338 16.932 13.0338C16.4714 13.0338 16.0987 13.4065 16.0987 13.8672V16.2597C16.0987 16.7203 16.4714 17.0932 16.932 17.0932Z" fill="#96B439"/>
<path d="M24.9495 17.0932C25.4102 17.0932 25.7829 16.7205 25.7829 16.2598V13.8672C25.7829 13.4065 25.4102 13.0338 24.9495 13.0338C24.4889 13.0338 24.1162 13.4065 24.1162 13.8672V16.2597C24.1162 16.7203 24.489 17.0932 24.9495 17.0932Z" fill="#96B439"/>
<path d="M20.8334 3.33333C11.1834 3.33333 3.33337 11.1833 3.33337 20.8333C3.33337 30.4833 11.1834 38.3333 20.8334 38.3333C30.4834 38.3333 38.3334 30.4833 38.3334 20.8333C38.3334 11.1833 30.4834 3.33333 20.8334 3.33333ZM20.8334 36.6667C12.1029 36.6667 5.00004 29.5638 5.00004 20.8333C5.00004 12.1028 12.1029 4.99999 20.8334 4.99999C29.5639 4.99999 36.6667 12.1028 36.6667 20.8333C36.6667 29.5638 29.5639 36.6667 20.8334 36.6667Z" fill="#96B439"/>
</svg>
